External Loads File
version=1
nRows=46
nColumns=13
Range=5.000000e-03-10 seconds
endheader
time 	forceRightX 	forceRightY 	forceRightZ 	pointRightX 	pointRightY 	pointRightZ 	forceLeftX 	forceLeftY 	forceLeftZ 	pointLeftX 	pointLeftY 	pointLeftZ 		
2.505000 10.731871 679.581802 -0.000000 0.424090 0.379323 -0.166051 -51.709834 -209.491004 -0.000000 0.141011 0.225290 -0.409630
2.510000 -0.524408 703.145074 -0.000000 0.426901 0.368967 -0.165994 -50.370407 -197.086795 -0.000000 0.138189 0.235014 -0.409614
2.515000 -12.968409 721.310375 -0.000000 0.429269 0.358470 -0.165828 -45.362722 -182.559148 -0.000000 0.135887 0.244917 -0.409533
2.520000 -25.255604 735.358650 -0.000000 0.431324 0.347765 -0.165599 -37.534856 -166.684022 -0.000000 0.134146 0.255002 -0.409522
2.525000 -37.014389 746.754432 -0.000000 0.432899 0.337011 -0.166000 -27.587820 -150.309560 -0.000000 0.132963 0.265228 -0.409441
2.530000 -47.150674 757.039714 -0.000000 0.433936 0.326017 -0.166096 -16.423520 -134.211098 -0.000000 0.132319 0.275558 -0.409398
2.535000 -55.176470 767.571081 -0.000000 0.434344 0.315035 -0.166158 -4.776264 -119.041534 -0.000000 0.132330 0.286161 -0.409337
2.540000 -60.876744 779.364701 -0.000000 0.434075 0.304011 -0.166058 6.744516 -105.214204 -0.000000 0.132917 0.296777 -0.409468
2.545000 -64.253115 793.076350 -0.000000 0.432799 0.292982 -0.166342 17.690448 -92.880585 -0.000000 0.134216 0.307175 -0.409627
2.550000 -62.217406 809.339497 -0.000000 0.431391 0.281460 -0.166356 27.475510 -82.093557 -0.000000 0.136103 0.317850 -0.409772
2.555000 -58.261199 828.080062 -0.000000 0.429418 0.270537 -0.167208 36.410394 -72.650532 -0.000000 0.138655 0.328483 -0.409950
2.560000 -51.450993 849.457472 -0.000000 0.426542 0.259833 -0.167212 44.348182 -64.445952 -0.000000 0.141772 0.338899 -0.410252
2.565000 -39.999844 873.509198 -0.000000 0.422963 0.249288 -0.167158 51.157944 -57.520745 -0.000000 0.145631 0.349595 -0.410625
2.570000 -27.755382 899.840075 -0.000000 0.418797 0.239147 -0.167134 57.059536 -51.656279 -0.000000 0.149821 0.359636 -0.410808
2.575000 -11.083763 928.235806 -0.000000 0.413947 0.229042 -0.167097 61.698013 -47.109074 -0.000000 0.154712 0.369756 -0.410905
2.580000 6.676322 958.078212 -0.000000 0.408497 0.219444 -0.167009 65.077445 -43.733519 -0.000000 0.160167 0.379305 -0.410769
2.585000 26.186570 988.707960 -0.000000 0.402484 0.210359 -0.167010 66.943730 -41.629818 -0.000000 0.166195 0.388501 -0.410551
2.590000 48.937354 1019.203113 -0.000000 0.395818 0.201455 -0.166884 67.020105 -40.902766 -0.000000 0.172832 0.397407 -0.410488
2.595000 73.762770 1048.538673 -0.000000 0.388590 0.192942 -0.166260 65.177356 -41.421967 -0.000000 0.179933 0.405929 -0.410363
2.600000 99.188931 1075.665718 -0.000000 0.381034 0.184953 -0.166171 61.358547 -43.001716 -0.000000 0.187565 0.413747 -0.410336
2.605000 126.186797 1099.236358 -0.000000 0.373054 0.177379 -0.166125 55.499226 -45.547994 -0.000000 0.195680 0.421053 -0.410299
2.610000 154.308066 1117.901164 -0.000000 0.364699 0.170361 -0.166088 47.710814 -48.851943 -0.000000 0.204227 0.427938 -0.410273
2.615000 182.090716 1130.487788 -0.000000 0.356079 0.163895 -0.166101 38.260198 -52.696902 -0.000000 0.213163 0.433972 -0.410338
2.620000 210.664519 1135.525259 -0.000000 0.347229 0.158000 -0.166098 27.346769 -56.991809 -0.000000 0.222692 0.439667 -0.410968
2.625000 235.967803 1132.617619 -0.000000 0.338109 0.152712 -0.165993 15.431408 -61.537743 -0.000000 0.231800 0.445141 -0.410163
2.630000 261.603008 1120.134642 -0.000000 0.328769 0.147814 -0.165821 2.573617 -66.315055 -0.000000 0.241848 0.449896 -0.409853
2.635000 283.049138 1098.405508 -0.000000 0.319309 0.143603 -0.165473 -10.711638 -71.142922 -0.000000 0.251817 0.454077 -0.409730
2.640000 298.843218 1067.591880 -0.000000 0.309887 0.139946 -0.165160 -23.993428 -75.897763 -0.000000 0.261518 0.457759 -0.409852
2.645000 310.949179 1027.238556 -0.000000 0.300461 0.136765 -0.164946 -37.057357 -80.313781 -0.000000 0.271639 0.460761 -0.409824
2.650000 318.182166 978.027373 -0.000000 0.290926 0.134339 -0.164641 -49.485281 -84.051528 -0.000000 0.281765 0.463296 -0.409887
2.655000 320.030210 920.788416 -0.000000 0.281541 0.132691 -0.164255 -60.857796 -86.706189 -0.000000 0.291946 0.465356 -0.410030
2.660000 316.983714 856.333402 -0.000000 0.271928 0.131562 -0.163919 -70.789377 -87.848709 -0.000000 0.301866 0.466799 -0.409772
2.665000 309.125169 785.948696 -0.000000 0.262507 0.131124 -0.163437 -78.856473 -87.225644 -0.000000 0.311699 0.467688 -0.409460
2.670000 298.206428 710.594071 -0.000000 0.253019 0.131287 -0.162691 -84.891778 -84.617409 -0.000000 0.321575 0.467880 -0.409096
2.675000 283.530299 632.489824 -0.000000 0.243713 0.131934 -0.162229 -88.578005 -80.159987 -0.000000 0.330883 0.467163 -0.409309
2.680000 267.435822 552.701905 -0.000000 0.234353 0.133310 -0.161610 -90.101824 -73.557838 -0.000000 0.340064 0.465892 -0.409774
2.685000 250.272929 473.015404 -0.000000 0.225098 0.135779 -0.160903 -89.513510 -64.586805 -0.000000 0.348817 0.463857 -0.409924
2.690000 232.482038 394.933101 -0.000000 0.216147 0.138976 -0.160223 -86.919421 -52.815502 -0.000000 0.357183 0.460887 -0.410384
2.695000 214.307738 319.743651 -0.000000 0.207466 0.142766 -0.159773 -82.436770 -37.632400 -0.000000 0.364973 0.456975 -0.410925
2.700000 195.821535 248.528981 -0.000000 0.199068 0.147335 -0.159610 -76.200083 -18.323466 -0.000000 0.372126 0.452781 -0.411489
2.705000 177.284159 181.990343 -0.000000 0.191043 0.152533 -0.159602 -68.433072 5.911286 -0.000000 0.378520 0.448015 -0.412180
2.710000 158.999368 120.631425 -0.000000 0.183428 0.158279 -0.159670 -59.508768 35.823367 -0.000000 0.384168 0.442942 -0.412967
2.715000 141.456976 64.587060 -0.000000 0.176043 0.164610 -0.159742 -49.942910 72.121071 -0.000000 0.389079 0.437509 -0.413222
2.720000 124.941838 13.865403 -0.000000 0.168357 0.171320 -0.160039 -40.255943 115.319794 -0.000000 0.393073 0.431579 -0.413756
2.725000 109.490986 -31.385720 -0.000000 0.161765 0.178674 -0.159323 -31.168471 165.577953 -0.000000 0.396625 0.425016 -0.414682
2.730000 94.950537 -71.228577 -0.000000 0.155773 0.186799 -0.159000 -23.261538 222.734848 -0.000000 0.399346 0.417868 -0.415418
